<svg width="26" height="29" viewBox="0 0 26 29" fill="none" xmlns="http://www.w3.org/2000/svg">
<path d="M15.82 25.6483L13 28.4683L10.18 25.6483C4.6375 24.3683 0.5 19.3983 0.5 13.4683C0.5 6.56826 6.1 0.968262 13 0.968262C19.9 0.968262 25.5 6.56826 25.5 13.4683C25.5 19.3983 21.3625 24.3683 15.82 25.6483ZM5.52875 17.7383C7.36375 20.4758 10.1187 22.2183 13.2 22.2183C16.28 22.2183 19.0362 20.477 20.87 17.7383C18.7897 15.794 16.0474 14.7143 13.2 14.7183C10.3521 14.714 7.60939 15.7937 5.52875 17.7383ZM13 12.2183C13.9946 12.2183 14.9484 11.8232 15.6517 11.1199C16.3549 10.4167 16.75 9.46282 16.75 8.46826C16.75 7.4737 16.3549 6.51987 15.6517 5.81661C14.9484 5.11335 13.9946 4.71826 13 4.71826C12.0054 4.71826 11.0516 5.11335 10.3483 5.81661C9.64509 6.51987 9.25 7.4737 9.25 8.46826C9.25 9.46282 9.64509 10.4167 10.3483 11.1199C11.0516 11.8232 12.0054 12.2183 13 12.2183Z" fill="white"/>
</svg>
